<?xml version="1.0" encoding="UTF-8"?>
<svg id="Layer_1" xmlns="http://www.w3.org/2000/svg" version="1.1" viewBox="0 0 566.9 566.9">
  <!-- Generator: Adobe Illustrator 29.3.0, SVG Export Plug-In . SVG Version: 2.1.0 Build 146)  -->
  <defs>
    <style>
      .st0 {
        fill: #1ef0c5;
      }
    </style>
  </defs>
  <path class="st0" d="M34.7,388.3h209.7v-209.7H34.7v209.7ZM180.8,242.3v82.4h-82.4v-82.4h82.4Z"/>
  <polygon class="st0" points="314.4 192 299.4 192 299.4 271.9 285.3 271.9 285.3 192 270.2 192 270.2 178.6 314.4 178.6 314.4 192"/>
  <polygon class="st0" points="368.5 271.9 354.4 271.9 354.4 231.3 337.6 231.3 337.6 271.9 323.5 271.9 323.5 178.6 337.6 178.6 337.6 217.9 354.4 217.9 354.4 178.6 368.5 178.6 368.5 271.9"/>
  <path class="st0" d="M417.6,229.4c6.7-3.8,10-10.7,10-20.5v-6.7c0-7.6-2-13.5-6-17.5-4-4-9.8-6.1-17.5-6.1h-20.4v93.3h14.1s0-39.4,0-39.4h6.5l11.2,39.4h14.9l-12.9-42.5ZM413.4,207.9c0,3.9-.8,6.8-2.4,8.7-1.6,1.9-4.1,2.8-7.5,2.8h-5.7v-27.7s5.7,0,5.7,0c3.4,0,5.9.9,7.5,2.8,1.6,1.9,2.4,4.7,2.4,8.7v4.8Z"/>
  <polygon class="st0" points="480.5 191.7 454.9 191.7 454.9 218.1 475.6 218.1 475.6 231.1 454.9 231.1 454.9 258.8 480.5 258.8 480.5 271.9 440.8 271.9 440.8 178.6 480.5 178.6 480.5 191.7"/>
  <polygon class="st0" points="532.2 191.7 506.6 191.7 506.6 218.1 527.3 218.1 527.3 231.1 506.6 231.1 506.6 258.8 532.2 258.8 532.2 271.9 492.5 271.9 492.5 178.6 532.2 178.6 532.2 191.7"/>
  <path class="st0" d="M313.9,285.3c4.1,4.1,6.2,10,6.2,17.6v2.7l-15.5,1.5v-3.9c0-3-.7-5.3-2.1-6.9-1.4-1.6-3.4-2.3-6.1-2.3s-4.7.8-6.1,2.3c-1.4,1.6-2.1,3.9-2.1,6.9v1.4c0,3.2,1,6.4,2.9,9.5,1.9,3.1,5.5,6.8,10.6,11.1,7.4,6.3,12.6,11.9,15.6,17,3,5.1,4.5,10.7,4.5,17v5.3c0,7.6-2.1,13.4-6.4,17.6-4.3,4.1-10.4,6.2-18.4,6.2-8,0-14.1-2.1-18.4-6.2-4.3-4.1-6.4-10-6.4-17.6v-7.1l15.5-1.5v7.6c0,6.7,3,10,9.1,10,6.1,0,9.1-3.3,9.1-10v-3.5c0-3.4-1-6.7-3-9.8-2-3.1-5.7-6.8-10.9-11.3-7.3-6.2-12.4-11.8-15.3-16.8-2.9-5-4.4-10.6-4.4-16.9v-2.3c0-7.6,2.1-13.4,6.2-17.6,4.1-4.1,10.1-6.2,17.7-6.2,7.7,0,13.6,2.1,17.7,6.2Z"/>
  <rect class="st0" x="331.7" y="280.6" width="16.1" height="106.2"/>
  <polygon class="st0" points="397 332.3 417.3 386.8 400.4 386.8 387.2 349.5 386.9 349.5 374.4 386.8 357.7 386.8 378.1 331.7 359 280.6 375.9 280.6 387.8 314.5 388.1 314.5 399.4 280.6 416.1 280.6 397 332.3"/>
  <polygon class="st0" points="470.3 295.8 453.1 295.8 453.1 386.8 437.1 386.8 437.1 295.8 419.9 295.8 419.9 280.6 470.3 280.6 470.3 295.8"/>
  <polygon class="st0" points="509.1 338.9 509.1 386.8 493 386.8 493 338.7 470.7 280.6 487.7 280.6 501.2 318.2 501.5 318.2 514.4 280.6 531.1 280.6 509.1 338.9"/>
</svg>